<svg width="8" height="11" viewBox="0 0 8 11" fill="none" xmlns="http://www.w3.org/2000/svg">
<path d="M6.83019 4.78995L2.59019 0.549949C2.49722 0.45622 2.38662 0.381826 2.26476 0.331057C2.1429 0.280288 2.0122 0.25415 1.88019 0.25415C1.74818 0.25415 1.61747 0.280288 1.49561 0.331057C1.37375 0.381826 1.26315 0.45622 1.17019 0.549949C0.983936 0.737311 0.879395 0.990763 0.879395 1.25495C0.879395 1.51913 0.983936 1.77259 1.17019 1.95995L4.71019 5.49995L1.17019 9.03995C0.983936 9.22731 0.879395 9.48076 0.879395 9.74495C0.879395 10.0091 0.983936 10.2626 1.17019 10.4499C1.26363 10.5426 1.37444 10.616 1.49628 10.6657C1.61812 10.7155 1.74858 10.7407 1.88019 10.7399C2.01179 10.7407 2.14226 10.7155 2.26409 10.6657C2.38593 10.616 2.49675 10.5426 2.59019 10.4499L6.83019 6.20995C6.92392 6.11699 6.99831 6.00638 7.04908 5.88453C7.09985 5.76267 7.12599 5.63196 7.12599 5.49995C7.12599 5.36794 7.09985 5.23723 7.04908 5.11537C6.99831 4.99351 6.92392 4.88291 6.83019 4.78995Z" fill="#CCD0DB"/>
</svg>
